<svg xmlns="http://www.w3.org/2000/svg" xmlns:xlink="http://www.w3.org/1999/xlink" width="500" zoomAndPan="magnify" viewBox="0 0 375 374.999991" height="500" preserveAspectRatio="xMidYMid meet" version="1.2"><defs><clipPath id="6a906ce6f5"><path d="M 135.8125 69.289062 L 239 69.289062 L 239 205.039062 L 135.8125 205.039062 Z M 135.8125 69.289062 "/></clipPath></defs><g id="e7756830ae"><g clip-rule="nonzero" clip-path="url(#6a906ce6f5)"><path style=" stroke:none;fill-rule:nonzero;fill:#ffffff;fill-opacity:1;" d="M 223.804688 84.359375 C 214.074219 74.648438 201.140625 69.300781 187.394531 69.300781 C 173.648438 69.300781 160.71875 74.648438 150.984375 84.359375 C 141.25 94.066406 135.871094 106.980469 135.835938 120.71875 L 135.835938 204.628906 C 135.835938 204.863281 136.023438 205.050781 136.257812 205.050781 L 238.53125 205.050781 C 238.765625 205.050781 238.953125 204.863281 238.953125 204.628906 L 238.953125 120.71875 C 238.917969 106.980469 233.539062 94.066406 223.804688 84.359375 Z M 238.105469 204.203125 L 136.683594 204.203125 L 136.683594 120.71875 C 136.71875 107.203125 142.011719 94.503906 151.582031 84.957031 C 161.15625 75.40625 173.875 70.148438 187.394531 70.148438 C 200.917969 70.148438 213.636719 75.40625 223.207031 84.957031 C 232.777344 94.503906 238.070312 107.203125 238.105469 120.71875 Z M 187.535156 74.074219 C 174.957031 74.074219 163.125 78.96875 154.21875 87.847656 C 145.3125 96.730469 140.390625 108.550781 140.355469 121.125 L 140.355469 199.824219 C 140.355469 200.058594 140.546875 200.25 140.78125 200.25 L 234.292969 200.25 C 234.527344 200.25 234.71875 200.058594 234.71875 199.824219 L 234.71875 121.125 C 234.683594 108.550781 229.757812 96.730469 220.855469 87.847656 C 211.949219 78.96875 200.113281 74.074219 187.535156 74.074219 Z M 145.582031 188.910156 C 145.578125 188.941406 145.574219 188.96875 145.574219 188.996094 C 145.574219 189.003906 145.578125 189.011719 145.578125 189.015625 C 145.40625 191.511719 145.285156 194.027344 145.230469 196.558594 C 145.230469 196.566406 145.226562 196.578125 145.226562 196.585938 C 145.226562 196.589844 145.230469 196.597656 145.230469 196.605469 C 145.210938 197.535156 145.195312 198.464844 145.191406 199.398438 L 141.203125 199.398438 L 141.203125 142.46875 L 154.367188 142.46875 C 154.164062 143.140625 153.964844 143.832031 153.761719 144.527344 C 153.714844 144.589844 153.683594 144.664062 153.679688 144.746094 C 153.675781 144.765625 153.679688 144.785156 153.683594 144.800781 C 153.121094 146.75 152.558594 148.804688 152.003906 150.9375 C 151.96875 150.992188 151.9375 151.054688 151.929688 151.121094 C 151.925781 151.15625 151.929688 151.191406 151.929688 151.222656 C 150.25 157.726562 148.648438 165.023438 147.429688 172.78125 C 147.410156 172.824219 147.394531 172.867188 147.390625 172.914062 C 147.386719 172.949219 147.386719 172.984375 147.394531 173.015625 C 147.003906 175.527344 146.652344 178.082031 146.351562 180.671875 C 146.339844 180.703125 146.332031 180.738281 146.328125 180.777344 C 146.324219 180.804688 146.324219 180.835938 146.332031 180.867188 C 146.023438 183.515625 145.773438 186.199219 145.582031 188.910156 Z M 163.984375 120.78125 C 163.527344 121.527344 162.71875 121.992188 161.828125 121.992188 C 160.425781 121.992188 159.285156 120.851562 159.285156 119.449219 C 159.285156 118.046875 160.425781 116.90625 161.828125 116.90625 C 161.957031 116.90625 162.085938 116.917969 162.214844 116.9375 C 162.148438 117.199219 162.109375 117.472656 162.109375 117.753906 C 162.109375 119.078125 162.875 120.226562 163.984375 120.78125 Z M 165.5 120.296875 C 164.097656 120.296875 162.957031 119.15625 162.957031 117.753906 C 162.957031 117.414062 163.023438 117.085938 163.148438 116.785156 C 163.152344 116.78125 163.15625 116.769531 163.15625 116.765625 C 163.15625 116.761719 163.15625 116.761719 163.15625 116.757812 C 163.382812 116.230469 163.785156 115.792969 164.289062 115.519531 C 164.648438 115.324219 165.0625 115.214844 165.5 115.214844 C 166.902344 115.214844 168.042969 116.355469 168.042969 117.757812 C 168.042969 119.15625 166.902344 120.296875 165.5 120.296875 Z M 168.792969 118.535156 C 169.699219 118.9375 170.304688 119.835938 170.304688 120.863281 C 170.304688 122.261719 169.160156 123.40625 167.761719 123.40625 C 166.449219 123.40625 165.367188 122.40625 165.230469 121.128906 C 165.320312 121.136719 165.410156 121.144531 165.5 121.144531 C 167.097656 121.144531 168.441406 120.03125 168.792969 118.535156 Z M 162.113281 122.824219 C 163.039062 122.75 163.878906 122.296875 164.453125 121.59375 C 164.496094 121.785156 164.550781 121.96875 164.625 122.148438 C 164.464844 122.644531 163.921875 124.355469 163.148438 127.027344 L 160.507812 126.871094 C 161.316406 124.746094 161.890625 123.355469 162.113281 122.824219 Z M 162.914062 127.867188 C 162.492188 129.328125 162.023438 131.039062 161.515625 132.964844 L 158.394531 132.707031 C 159.058594 130.792969 159.667969 129.113281 160.195312 127.703125 Z M 161.296875 133.796875 C 160.925781 135.210938 160.542969 136.730469 160.144531 138.347656 L 156.585938 138.148438 C 157.113281 136.5 157.625 134.953125 158.113281 133.53125 Z M 159.941406 139.1875 C 159.734375 140.042969 159.523438 140.921875 159.316406 141.820312 C 159.277344 141.886719 159.25 141.964844 159.25 142.046875 C 159.25 142.058594 159.253906 142.070312 159.253906 142.085938 C 159.195312 142.335938 159.136719 142.585938 159.078125 142.839844 C 159.074219 142.851562 159.0625 142.859375 159.058594 142.871094 C 159.023438 142.941406 159.011719 143.015625 159.019531 143.089844 C 158.902344 143.613281 158.78125 144.144531 158.660156 144.679688 L 154.675781 144.390625 C 155.230469 142.484375 155.777344 140.675781 156.316406 138.980469 Z M 158.480469 145.515625 C 158.0625 147.410156 157.648438 149.382812 157.242188 151.429688 L 152.90625 150.832031 C 153.414062 148.886719 153.929688 147.015625 154.4375 145.230469 Z M 149.675781 164.933594 C 150.097656 162.789062 150.539062 160.691406 151 158.652344 L 155.765625 159.4375 C 155.417969 161.46875 155.089844 163.546875 154.78125 165.667969 Z M 154.664062 166.503906 C 154.351562 168.679688 154.066406 170.898438 153.804688 173.140625 L 148.316406 172.585938 C 148.683594 170.265625 149.089844 167.992188 149.515625 165.765625 Z M 151.191406 157.820312 C 151.675781 155.699219 152.179688 153.640625 152.691406 151.65625 L 157.074219 152.261719 C 156.675781 154.3125 156.28125 156.429688 155.90625 158.601562 Z M 146.039062 199.402344 C 146.042969 198.605469 146.054688 197.808594 146.070312 197.011719 L 152.464844 197.011719 C 152.472656 197.808594 152.488281 198.605469 152.511719 199.402344 Z M 152.460938 196.164062 L 146.085938 196.164062 C 146.140625 193.902344 146.25 191.65625 146.398438 189.421875 L 152.5625 189.421875 C 152.480469 191.667969 152.445312 193.917969 152.460938 196.164062 Z M 152.589844 188.574219 L 146.457031 188.574219 C 146.632812 186.117188 146.859375 183.683594 147.132812 181.28125 L 152.980469 181.835938 C 152.8125 184.074219 152.683594 186.320312 152.589844 188.574219 Z M 147.230469 180.4375 C 147.511719 178.066406 147.832031 175.726562 148.1875 173.425781 L 153.710938 173.988281 C 153.453125 176.296875 153.230469 178.636719 153.042969 180.992188 Z M 153.355469 199.402344 C 152.820312 179.433594 156.363281 158.644531 159.757812 143.683594 C 163.03125 145.320312 169.539062 149.128906 170.203125 153.859375 C 170.53125 156.191406 169.402344 158.527344 166.84375 160.804688 C 161.351562 165.703125 161.152344 170.109375 161.953125 172.941406 C 163.363281 177.925781 168.675781 181.355469 173.191406 182.164062 C 178.148438 183.050781 202.714844 187.992188 206.054688 199.402344 Z M 206.933594 199.402344 C 205.613281 194.441406 200.527344 190.113281 191.8125 186.535156 C 184.378906 183.484375 176.417969 181.878906 173.34375 181.328125 C 167.71875 180.320312 163.765625 176.230469 162.769531 172.710938 C 161.71875 168.980469 163.320312 165.082031 167.410156 161.4375 C 170.191406 158.960938 171.414062 156.367188 171.042969 153.742188 C 170.332031 148.6875 163.933594 144.792969 159.953125 142.832031 C 159.980469 142.710938 160.007812 142.589844 160.035156 142.46875 L 161.183594 142.46875 C 162.167969 142.867188 173.261719 147.503906 174.335938 153.738281 C 174.742188 156.121094 173.605469 158.5 170.945312 160.800781 C 166.261719 164.855469 164.332031 168.59375 165.210938 171.90625 C 165.6875 173.695312 167.015625 175.324219 169.058594 176.613281 C 171.257812 178.007812 173.578125 178.609375 174.761719 178.84375 L 175.457031 178.980469 C 183.125 180.480469 206.269531 185.007812 210.023438 199.402344 Z M 233.871094 199.402344 L 210.890625 199.402344 C 207.175781 184.324219 183.453125 179.679688 175.613281 178.148438 L 174.917969 178.011719 C 171.128906 177.265625 166.90625 175.019531 166.027344 171.691406 C 165.238281 168.714844 167.078125 165.265625 171.496094 161.441406 C 174.398438 158.929688 175.632812 156.292969 175.167969 153.589844 C 174.242188 148.214844 166.839844 144.136719 163.289062 142.464844 L 233.871094 142.464844 Z M 197.605469 141.621094 C 198.703125 134.664062 204.734375 129.480469 211.832031 129.480469 C 218.929688 129.480469 224.964844 134.664062 226.0625 141.621094 Z M 233.871094 141.621094 L 226.917969 141.621094 C 226.835938 141.089844 226.734375 140.566406 226.601562 140.058594 L 233.867188 138.84375 L 233.867188 141.621094 Z M 233.871094 137.984375 L 226.367188 139.238281 C 225.984375 138.03125 225.449219 136.890625 224.796875 135.839844 L 228.902344 132.816406 C 229.09375 132.679688 229.132812 132.414062 228.992188 132.226562 C 228.855469 132.035156 228.589844 131.996094 228.398438 132.132812 L 224.324219 135.132812 C 223.570312 134.054688 222.679688 133.085938 221.679688 132.242188 L 227.140625 125.371094 C 227.285156 125.1875 227.253906 124.921875 227.070312 124.773438 C 226.886719 124.628906 226.621094 124.660156 226.476562 124.84375 L 221.019531 131.710938 C 219.925781 130.882812 218.714844 130.203125 217.425781 129.691406 L 218.347656 126.628906 C 218.414062 126.40625 218.289062 126.171875 218.066406 126.101562 C 217.84375 126.035156 217.605469 126.160156 217.535156 126.386719 L 216.628906 129.398438 C 215.242188 128.941406 213.777344 128.679688 212.257812 128.636719 L 212.257812 118.652344 C 212.257812 118.417969 212.070312 118.230469 211.835938 118.230469 C 211.601562 118.230469 211.410156 118.417969 211.410156 118.652344 L 211.410156 128.636719 C 209.941406 128.675781 208.519531 128.925781 207.171875 129.359375 L 206.230469 126.242188 C 206.164062 126.019531 205.925781 125.890625 205.703125 125.957031 C 205.480469 126.027344 205.351562 126.261719 205.417969 126.488281 L 206.371094 129.640625 C 205.066406 130.140625 203.847656 130.816406 202.734375 131.644531 L 197.335938 124.84375 C 197.191406 124.660156 196.921875 124.628906 196.738281 124.773438 C 196.554688 124.921875 196.523438 125.1875 196.671875 125.371094 L 202.070312 132.171875 C 201.0625 133.011719 200.15625 133.984375 199.390625 135.0625 L 195.855469 132.460938 C 195.667969 132.324219 195.402344 132.363281 195.261719 132.550781 C 195.125 132.742188 195.164062 133.007812 195.355469 133.144531 L 198.917969 135.769531 C 198.246094 136.835938 197.703125 137.988281 197.308594 139.214844 L 187.609375 137.59375 C 187.378906 137.554688 187.160156 137.714844 187.121094 137.941406 C 187.082031 138.175781 187.238281 138.390625 187.46875 138.429688 L 197.070312 140.035156 C 196.9375 140.554688 196.832031 141.085938 196.75 141.625 L 160.230469 141.625 C 162.441406 132.171875 164.5 125.371094 165.214844 123.097656 C 165.835938 123.804688 166.746094 124.253906 167.761719 124.253906 C 169.628906 124.253906 171.152344 122.734375 171.152344 120.863281 C 171.152344 119.40625 170.234375 118.136719 168.882812 117.667969 C 168.875 117.324219 168.816406 116.996094 168.714844 116.6875 C 170.210938 117.886719 171.363281 119.351562 172.242188 120.953125 C 171.835938 121.972656 169.722656 126.761719 165.714844 128.085938 C 165.492188 128.160156 165.371094 128.398438 165.445312 128.621094 C 165.503906 128.796875 165.667969 128.910156 165.84375 128.910156 C 165.890625 128.910156 165.933594 128.90625 165.976562 128.886719 C 168 128.222656 169.878906 126.652344 171.40625 124.34375 C 172.019531 123.414062 172.460938 122.550781 172.742188 121.9375 C 173.039062 122.578125 173.304688 123.234375 173.527344 123.902344 C 173.328125 124.894531 171.84375 131.082031 165.683594 133.589844 C 165.464844 133.675781 165.363281 133.925781 165.453125 134.140625 C 165.519531 134.304688 165.679688 134.40625 165.84375 134.40625 C 165.898438 134.40625 165.953125 134.394531 166.003906 134.375 C 171.140625 132.285156 173.222656 127.804688 173.988281 125.4375 C 174.253906 126.429688 174.449219 127.433594 174.589844 128.421875 C 174.574219 128.453125 174.558594 128.484375 174.550781 128.519531 C 174.53125 128.582031 172.824219 134.574219 165.75 137.5625 C 165.535156 137.65625 165.433594 137.902344 165.527344 138.121094 C 165.59375 138.28125 165.75 138.378906 165.914062 138.378906 C 165.96875 138.378906 166.027344 138.371094 166.078125 138.347656 C 171.40625 136.09375 173.824219 132.285156 174.796875 130.203125 C 174.925781 131.625 174.953125 132.980469 174.929688 134.203125 C 174.4375 136.660156 170.523438 139.269531 170.484375 139.296875 C 170.289062 139.425781 170.234375 139.6875 170.363281 139.882812 C 170.445312 140.007812 170.578125 140.074219 170.714844 140.074219 C 170.792969 140.074219 170.875 140.050781 170.945312 140.003906 C 171.078125 139.914062 173.441406 138.339844 174.832031 136.363281 C 174.691406 138.308594 174.46875 139.570312 174.457031 139.617188 C 174.417969 139.84375 174.566406 140.066406 174.796875 140.109375 C 174.824219 140.117188 174.851562 140.117188 174.875 140.117188 C 175.078125 140.117188 175.253906 139.976562 175.292969 139.773438 C 175.296875 139.738281 175.722656 137.429688 175.789062 134.195312 C 175.792969 134.175781 175.792969 134.152344 175.789062 134.132812 C 175.816406 132.773438 175.777344 131.253906 175.617188 129.671875 C 175.398438 127.519531 174.980469 125.554688 174.386719 123.777344 C 174.378906 123.722656 174.363281 123.671875 174.335938 123.628906 C 173.992188 122.628906 173.582031 121.691406 173.121094 120.820312 C 173.101562 120.742188 173.066406 120.671875 173.015625 120.617188 C 171.96875 118.699219 170.628906 117.105469 169.027344 115.867188 C 170.476562 116.214844 172.582031 116.867188 174.925781 118.058594 C 175.089844 118.527344 175.613281 120.324219 175.378906 123.800781 C 175.363281 124.035156 175.539062 124.234375 175.773438 124.253906 C 175.785156 124.253906 175.796875 124.253906 175.804688 124.253906 C 176.023438 124.253906 176.210938 124.078125 176.226562 123.855469 C 176.398438 121.292969 176.171875 119.585938 175.957031 118.605469 C 176.441406 118.882812 176.945312 119.183594 177.460938 119.519531 C 177.867188 120.199219 180.765625 125.394531 177.828125 132.066406 C 177.734375 132.28125 177.832031 132.53125 178.046875 132.625 C 178.101562 132.652344 178.160156 132.664062 178.214844 132.664062 C 178.378906 132.664062 178.535156 132.570312 178.601562 132.410156 C 180.9375 127.105469 179.824219 122.742188 178.90625 120.53125 C 179.847656 121.234375 180.808594 122.046875 181.765625 122.984375 C 182.035156 123.832031 183.59375 129.273438 181.085938 134.054688 C 180.976562 134.261719 181.058594 134.519531 181.265625 134.628906 C 181.328125 134.664062 181.394531 134.675781 181.460938 134.675781 C 181.613281 134.675781 181.761719 134.59375 181.839844 134.449219 C 183.859375 130.601562 183.433594 126.460938 182.964844 124.230469 C 183.828125 125.179688 184.675781 126.246094 185.484375 127.429688 C 185.484375 127.453125 185.488281 127.472656 185.492188 127.496094 C 185.503906 127.527344 186.359375 130.921875 185.007812 134.710938 C 184.929688 134.929688 185.042969 135.175781 185.265625 135.253906 C 185.3125 135.269531 185.359375 135.277344 185.40625 135.277344 C 185.582031 135.277344 185.742188 135.171875 185.804688 134.996094 C 186.617188 132.726562 186.6875 130.613281 186.585938 129.171875 C 187.464844 130.65625 188.28125 132.304688 188.992188 134.140625 C 189.054688 134.308594 189.21875 134.410156 189.386719 134.410156 C 189.4375 134.410156 189.492188 134.402344 189.539062 134.382812 C 189.757812 134.296875 189.863281 134.050781 189.78125 133.835938 C 187.847656 128.863281 185.203125 125.203125 182.488281 122.511719 C 182.449219 122.453125 182.398438 122.40625 182.339844 122.367188 C 180.878906 120.941406 179.402344 119.792969 178.007812 118.875 C 177.996094 118.867188 177.980469 118.859375 177.96875 118.851562 C 177.238281 118.371094 176.53125 117.957031 175.859375 117.597656 C 172.324219 115.703125 169.28125 115.007812 167.886719 114.769531 C 168.554688 114.144531 169.257812 113.59375 169.992188 113.113281 C 171.703125 113.09375 173.523438 115.0625 173.542969 115.082031 C 173.628906 115.171875 173.742188 115.21875 173.855469 115.21875 C 173.957031 115.21875 174.058594 115.183594 174.140625 115.109375 C 174.316406 114.953125 174.328125 114.683594 174.171875 114.511719 C 174.101562 114.433594 172.746094 112.972656 171.109375 112.449219 C 171.765625 112.09375 172.441406 111.789062 173.128906 111.53125 C 177.417969 113.144531 179.234375 118 179.253906 118.046875 C 179.316406 118.21875 179.480469 118.328125 179.652344 118.328125 C 179.699219 118.328125 179.746094 118.320312 179.796875 118.300781 C 180.015625 118.222656 180.128906 117.980469 180.050781 117.757812 C 179.976562 117.554688 178.328125 113.140625 174.320312 111.125 C 174.921875 110.945312 175.53125 110.796875 176.144531 110.671875 C 176.148438 110.671875 176.148438 110.675781 176.152344 110.675781 C 181.933594 112.003906 184.46875 120.230469 184.492188 120.3125 C 184.546875 120.496094 184.71875 120.613281 184.902344 120.613281 C 184.941406 120.613281 184.984375 120.609375 185.023438 120.597656 C 185.246094 120.527344 185.371094 120.292969 185.308594 120.066406 C 185.28125 119.976562 184.636719 117.855469 183.222656 115.53125 C 181.71875 113.054688 179.910156 111.308594 177.921875 110.394531 C 178.992188 110.269531 180.0625 110.214844 181.125 110.226562 C 188.476562 113.253906 188.246094 119.183594 188.230469 119.433594 C 188.21875 119.667969 188.394531 119.867188 188.628906 119.882812 C 188.636719 119.882812 188.648438 119.882812 188.65625 119.882812 C 188.878906 119.882812 189.066406 119.707031 189.078125 119.484375 C 189.082031 119.414062 189.167969 117.730469 188.25 115.632812 C 187.546875 114.035156 186.117188 111.941406 183.238281 110.308594 C 184.359375 110.390625 185.449219 110.53125 186.492188 110.703125 C 191.234375 113.382812 191.769531 118.332031 191.777344 118.378906 C 191.796875 118.597656 191.984375 118.761719 192.199219 118.761719 C 192.210938 118.761719 192.222656 118.761719 192.238281 118.761719 C 192.46875 118.738281 192.640625 118.53125 192.617188 118.300781 C 192.597656 118.105469 192.171875 114.050781 188.574219 111.101562 C 189.851562 111.378906 191.015625 111.691406 192.023438 111.996094 C 194.523438 113.960938 194.296875 116.339844 194.285156 116.441406 C 194.261719 116.675781 194.425781 116.882812 194.65625 116.914062 C 194.671875 116.914062 194.691406 116.914062 194.707031 116.914062 C 194.917969 116.914062 195.101562 116.757812 195.128906 116.542969 C 195.140625 116.441406 195.34375 114.519531 193.808594 112.574219 C 195.058594 113.007812 195.808594 113.332031 195.84375 113.351562 C 196.058594 113.445312 196.308594 113.347656 196.40625 113.136719 C 196.5 112.921875 196.402344 112.671875 196.191406 112.574219 C 196.164062 112.5625 194.683594 111.914062 192.355469 111.203125 C 192.332031 111.195312 192.308594 111.183594 192.28125 111.179688 C 190.390625 110.605469 187.949219 109.992188 185.277344 109.644531 C 183.871094 109.460938 182.519531 109.367188 181.214844 109.359375 C 181.175781 109.351562 181.136719 109.351562 181.097656 109.359375 C 178.144531 109.347656 175.453125 109.785156 173.074219 110.652344 C 173 110.65625 172.929688 110.683594 172.871094 110.726562 C 171.742188 111.152344 170.679688 111.679688 169.695312 112.304688 C 169.648438 112.324219 169.605469 112.351562 169.566406 112.390625 C 169.003906 112.753906 168.464844 113.152344 167.953125 113.585938 C 168.027344 113.324219 168.097656 113.066406 168.164062 112.808594 C 168.167969 112.800781 168.167969 112.792969 168.171875 112.785156 C 168.378906 111.988281 168.558594 111.195312 168.707031 110.402344 C 168.71875 110.367188 168.722656 110.335938 168.726562 110.296875 C 168.957031 109.074219 169.121094 107.855469 169.230469 106.664062 C 169.246094 106.617188 169.25 106.570312 169.246094 106.519531 C 169.4375 104.378906 169.460938 102.316406 169.375 100.394531 C 169.382812 100.347656 169.386719 100.296875 169.382812 100.242188 C 169.375 100.203125 169.367188 100.160156 169.359375 100.117188 C 169.230469 97.542969 168.910156 95.230469 168.558594 93.351562 C 168.5625 93.296875 168.558594 93.238281 168.535156 93.183594 C 168.53125 93.167969 168.527344 93.152344 168.519531 93.136719 C 167.949219 90.136719 167.316406 88.269531 167.300781 88.21875 C 167.222656 87.996094 166.984375 87.878906 166.761719 87.953125 C 166.539062 88.03125 166.421875 88.273438 166.496094 88.492188 C 166.507812 88.53125 166.84375 89.523438 167.242188 91.203125 C 165.90625 89.886719 164.167969 89.289062 164.066406 89.257812 C 163.839844 89.183594 163.605469 89.300781 163.527344 89.523438 C 163.453125 89.746094 163.574219 89.984375 163.792969 90.0625 C 163.824219 90.074219 166.855469 91.117188 167.699219 93.378906 C 167.925781 94.578125 168.140625 95.953125 168.300781 97.46875 C 166.292969 94.320312 162.21875 92.472656 162 92.371094 C 161.789062 92.277344 161.535156 92.371094 161.441406 92.585938 C 161.34375 92.800781 161.441406 93.050781 161.65625 93.148438 C 161.71875 93.175781 167.851562 95.964844 168.535156 100.21875 C 168.597656 101.464844 168.609375 102.773438 168.5625 104.125 C 166.4375 98.785156 161.402344 95.644531 161.160156 95.496094 C 160.960938 95.375 160.699219 95.4375 160.578125 95.636719 C 160.457031 95.839844 160.519531 96.097656 160.71875 96.21875 C 160.78125 96.261719 167.109375 100.210938 168.40625 106.546875 C 168.34375 107.238281 168.257812 107.9375 168.15625 108.644531 C 167.117188 106.4375 165.382812 104.621094 163.988281 103.402344 C 162.160156 101.808594 160.546875 100.894531 160.480469 100.855469 C 160.277344 100.742188 160.015625 100.8125 159.902344 101.019531 C 159.789062 101.222656 159.859375 101.480469 160.0625 101.59375 C 160.125 101.628906 166.332031 105.167969 167.878906 110.269531 C 167.820312 110.582031 167.753906 110.898438 167.6875 111.214844 C 166.351562 108.710938 162.964844 106.085938 162.792969 105.957031 C 162.605469 105.8125 162.339844 105.847656 162.199219 106.03125 C 162.054688 106.21875 162.09375 106.484375 162.277344 106.625 C 163.566406 107.613281 166.945312 110.605469 167.339844 112.65625 C 167.21875 113.121094 167.085938 113.582031 166.941406 114.042969 C 166.703125 113.65625 166.460938 113.285156 166.210938 112.921875 C 166.207031 112.910156 166.203125 112.90625 166.199219 112.902344 C 165.597656 112.023438 164.960938 111.210938 164.300781 110.460938 C 164.28125 110.425781 164.25 110.390625 164.21875 110.363281 C 163.277344 109.300781 162.289062 108.359375 161.285156 107.527344 C 161.25 107.476562 161.199219 107.429688 161.140625 107.398438 C 161.128906 107.390625 161.117188 107.386719 161.109375 107.382812 C 159.8125 106.328125 158.484375 105.457031 157.191406 104.734375 C 157.144531 104.679688 157.082031 104.636719 157.003906 104.613281 C 156.980469 104.605469 156.960938 104.601562 156.941406 104.59375 C 155.085938 103.582031 153.304688 102.875 151.757812 102.382812 C 151.707031 102.34375 151.648438 102.320312 151.582031 102.3125 C 151.558594 102.308594 151.53125 102.304688 151.503906 102.304688 C 148.722656 101.441406 146.773438 101.285156 146.722656 101.285156 C 146.488281 101.261719 146.289062 101.441406 146.273438 101.675781 C 146.253906 101.910156 146.429688 102.109375 146.664062 102.128906 C 146.691406 102.128906 147.375 102.1875 148.496094 102.40625 C 146.734375 102.753906 145.484375 103.460938 145.40625 103.503906 C 145.203125 103.621094 145.136719 103.878906 145.25 104.082031 C 145.332031 104.21875 145.472656 104.292969 145.621094 104.292969 C 145.691406 104.292969 145.761719 104.277344 145.832031 104.238281 C 145.855469 104.222656 148.46875 102.75 151.34375 103.136719 C 152.183594 103.398438 153.097656 103.726562 154.058594 104.136719 C 148.714844 104.089844 145.289062 108.546875 145.25 108.597656 C 145.109375 108.785156 145.148438 109.050781 145.332031 109.191406 C 145.410156 109.246094 145.5 109.277344 145.589844 109.277344 C 145.714844 109.277344 145.84375 109.214844 145.925781 109.105469 C 146.101562 108.875 150.277344 103.46875 156.625 105.382812 C 157.347656 105.777344 158.074219 106.222656 158.808594 106.722656 C 157.035156 106.535156 154.875 106.902344 152.34375 107.828125 C 149.582031 108.835938 147.433594 110.128906 147.34375 110.183594 C 147.144531 110.308594 147.082031 110.566406 147.203125 110.765625 C 147.285156 110.898438 147.425781 110.972656 147.566406 110.972656 C 147.640625 110.972656 147.714844 110.949219 147.785156 110.910156 C 147.871094 110.859375 156.203125 105.859375 160.660156 108.105469 C 161.261719 108.601562 161.859375 109.132812 162.441406 109.710938 C 160.511719 109.316406 158.207031 109.683594 155.65625 110.816406 C 153.164062 111.921875 151.335938 113.335938 151.257812 113.394531 C 151.074219 113.539062 151.039062 113.804688 151.183594 113.988281 C 151.269531 114.09375 151.394531 114.152344 151.519531 114.152344 C 151.609375 114.152344 151.703125 114.125 151.777344 114.0625 C 151.847656 114.003906 158.894531 108.601562 163.675781 111.027344 C 163.980469 111.375 164.28125 111.738281 164.574219 112.113281 C 161.382812 111.328125 157.675781 113.8125 157.492188 113.9375 C 157.300781 114.070312 157.25 114.332031 157.378906 114.523438 C 157.460938 114.644531 157.59375 114.710938 157.730469 114.710938 C 157.8125 114.710938 157.894531 114.6875 157.96875 114.636719 C 158.011719 114.605469 162.636719 111.515625 165.546875 113.449219 C 165.761719 113.765625 165.976562 114.09375 166.179688 114.429688 C 165.960938 114.382812 165.730469 114.359375 165.5 114.359375 C 164.980469 114.359375 164.488281 114.484375 164.046875 114.691406 C 161.851562 114.339844 159.578125 114.515625 157.277344 115.226562 C 156.277344 115.539062 155.261719 115.953125 154.265625 116.457031 C 154.253906 116.464844 154.246094 116.46875 154.234375 116.472656 C 154.234375 116.476562 154.230469 116.476562 154.226562 116.480469 C 151.40625 117.90625 148.613281 120.070312 145.929688 122.910156 C 145.925781 122.914062 145.925781 122.914062 145.921875 122.917969 C 145.914062 122.925781 145.914062 122.925781 145.90625 122.933594 C 143.679688 125.289062 142.390625 127.199219 142.335938 127.28125 C 142.207031 127.476562 142.257812 127.738281 142.453125 127.867188 C 142.527344 127.917969 142.609375 127.9375 142.6875 127.9375 C 142.824219 127.9375 142.957031 127.875 143.039062 127.753906 C 143.046875 127.738281 143.777344 126.660156 145.054688 125.152344 C 144.652344 127.539062 145.238281 130.332031 145.269531 130.488281 C 145.3125 130.6875 145.488281 130.828125 145.683594 130.828125 C 145.710938 130.828125 145.742188 130.824219 145.773438 130.816406 C 146.003906 130.769531 146.148438 130.542969 146.097656 130.316406 C 146.089844 130.265625 145.105469 125.5625 146.542969 123.496094 C 147.476562 122.511719 148.4375 121.597656 149.40625 120.769531 C 148.640625 122.925781 147.675781 127.355469 149.90625 132.722656 C 149.976562 132.886719 150.132812 132.980469 150.300781 132.980469 C 150.355469 132.980469 150.410156 132.96875 150.464844 132.949219 C 150.683594 132.859375 150.785156 132.609375 150.691406 132.394531 C 147.753906 125.320312 150.726562 119.832031 150.757812 119.777344 C 150.78125 119.738281 150.796875 119.691406 150.804688 119.648438 C 151.644531 119.011719 152.492188 118.4375 153.335938 117.9375 C 152.222656 120.152344 150.542969 124.828125 152.753906 129.945312 C 152.820312 130.105469 152.980469 130.203125 153.144531 130.203125 C 153.199219 130.203125 153.253906 130.191406 153.308594 130.167969 C 153.523438 130.074219 153.621094 129.824219 153.53125 129.613281 C 150.855469 123.425781 154.261719 117.90625 154.746094 117.167969 C 155.386719 116.851562 156.03125 116.574219 156.671875 116.335938 C 156.441406 116.96875 156.144531 117.902344 155.929688 119.007812 C 155.40625 121.722656 155.644531 124.160156 156.617188 126.054688 C 156.695312 126.203125 156.839844 126.285156 156.992188 126.285156 C 157.058594 126.285156 157.125 126.269531 157.1875 126.234375 C 157.398438 126.128906 157.480469 125.875 157.371094 125.664062 C 155.429688 121.894531 157.308594 116.964844 157.71875 115.984375 C 159.527344 115.449219 161.316406 115.257812 163.050781 115.417969 C 162.847656 115.628906 162.671875 115.867188 162.53125 116.125 C 162.300781 116.078125 162.070312 116.050781 161.835938 116.050781 C 159.964844 116.050781 158.445312 117.570312 158.445312 119.441406 C 158.445312 121.097656 159.644531 122.484375 161.222656 122.773438 C 160.6875 124.058594 159.253906 127.617188 157.449219 132.867188 C 157.425781 132.910156 157.410156 132.953125 157.398438 133.003906 C 156.539062 135.511719 155.597656 138.402344 154.628906 141.613281 L 141.203125 141.613281 L 141.203125 121.117188 C 141.238281 108.769531 146.070312 97.167969 154.816406 88.441406 C 163.566406 79.71875 175.183594 74.914062 187.535156 74.914062 C 199.886719 74.914062 211.507812 79.71875 220.253906 88.441406 C 229 97.167969 233.835938 108.769531 233.871094 121.117188 Z M 203.636719 91.675781 C 203.609375 91.90625 203.398438 92.070312 203.164062 92.042969 C 199.089844 91.535156 198.023438 95.777344 197.980469 95.957031 C 197.941406 96.128906 197.800781 96.257812 197.625 96.28125 C 197.605469 96.28125 197.585938 96.28125 197.566406 96.28125 C 197.414062 96.28125 197.273438 96.199219 197.195312 96.066406 C 196.433594 94.695312 195.429688 93.832031 194.214844 93.511719 C 192.058594 92.941406 189.898438 94.230469 189.878906 94.242188 C 189.679688 94.363281 189.417969 94.300781 189.296875 94.101562 C 189.175781 93.902344 189.238281 93.640625 189.4375 93.519531 C 189.535156 93.457031 191.917969 92.027344 194.425781 92.691406 C 195.628906 93.007812 196.644531 93.746094 197.457031 94.890625 C 198.0625 93.445312 199.683594 90.75 203.273438 91.203125 C 203.5 91.226562 203.664062 91.441406 203.636719 91.675781 Z M 218.695312 103.621094 C 217.691406 103.476562 216.84375 103.660156 216.179688 104.167969 C 214.917969 105.117188 214.65625 106.917969 214.65625 106.933594 C 214.628906 107.128906 214.472656 107.28125 214.273438 107.296875 C 214.261719 107.296875 214.25 107.300781 214.234375 107.300781 C 214.054688 107.300781 213.890625 107.183594 213.832031 107.011719 C 213.4375 105.828125 212.800781 105.015625 211.933594 104.59375 C 210.542969 103.917969 209.023438 104.449219 209.011719 104.453125 C 208.789062 104.53125 208.546875 104.417969 208.46875 104.195312 C 208.390625 103.976562 208.503906 103.734375 208.726562 103.652344 C 208.800781 103.625 210.597656 103 212.300781 103.832031 C 213.066406 104.203125 213.679688 104.800781 214.144531 105.617188 C 214.40625 104.933594 214.871094 104.097656 215.660156 103.5 C 216.515625 102.847656 217.578125 102.609375 218.816406 102.785156 C 219.046875 102.820312 219.210938 103.035156 219.175781 103.265625 C 219.140625 103.5 218.925781 103.65625 218.695312 103.621094 Z M 194.367188 131.898438 C 194.285156 132.011719 194.15625 132.070312 194.027344 132.070312 C 193.9375 132.070312 193.851562 132.046875 193.773438 131.988281 L 192.316406 130.917969 C 192.128906 130.777344 192.085938 130.511719 192.226562 130.324219 C 192.363281 130.132812 192.628906 130.09375 192.820312 130.234375 L 194.277344 131.304688 C 194.464844 131.445312 194.507812 131.710938 194.367188 131.898438 Z M 205.59375 124.140625 C 205.660156 124.363281 205.53125 124.601562 205.308594 124.671875 C 205.269531 124.679688 205.226562 124.6875 205.1875 124.6875 C 205.007812 124.6875 204.835938 124.570312 204.785156 124.386719 L 204.226562 122.539062 C 204.15625 122.3125 204.285156 122.078125 204.507812 122.007812 C 204.730469 121.941406 204.96875 122.066406 205.035156 122.292969 Z M 230.273438 131.285156 C 230.132812 131.09375 230.175781 130.828125 230.363281 130.691406 L 230.984375 130.234375 C 231.175781 130.09375 231.441406 130.132812 231.578125 130.324219 C 231.714844 130.511719 231.675781 130.777344 231.488281 130.917969 L 230.867188 131.375 C 230.789062 131.429688 230.703125 131.457031 230.613281 131.457031 C 230.484375 131.460938 230.359375 131.398438 230.273438 131.285156 Z M 219.585938 122.539062 L 219.199219 123.8125 C 219.140625 123.996094 218.976562 124.117188 218.792969 124.117188 C 218.753906 124.117188 218.710938 124.109375 218.671875 124.097656 C 218.449219 124.03125 218.324219 123.792969 218.390625 123.570312 L 218.777344 122.292969 C 218.84375 122.070312 219.082031 121.945312 219.304688 122.011719 C 219.527344 122.078125 219.652344 122.3125 219.585938 122.539062 Z M 167.269531 153.335938 C 167.503906 153.351562 167.679688 153.550781 167.664062 153.785156 C 167.636719 154.214844 167.566406 154.65625 167.464844 155.101562 C 167.421875 155.300781 167.246094 155.433594 167.054688 155.433594 C 167.023438 155.433594 166.992188 155.429688 166.960938 155.421875 C 166.730469 155.371094 166.589844 155.140625 166.640625 154.917969 C 166.734375 154.511719 166.792969 154.113281 166.820312 153.730469 C 166.832031 153.496094 167.035156 153.316406 167.269531 153.335938 Z M 163.847656 147.941406 C 163.949219 147.730469 164.199219 147.640625 164.414062 147.742188 C 164.511719 147.792969 166.824219 148.933594 167.5 151.734375 C 167.554688 151.960938 167.414062 152.191406 167.1875 152.242188 C 167.152344 152.253906 167.117188 152.253906 167.085938 152.253906 C 166.894531 152.253906 166.722656 152.125 166.675781 151.929688 C 166.097656 149.53125 164.0625 148.515625 164.042969 148.507812 C 163.832031 148.40625 163.746094 148.148438 163.847656 147.941406 Z M 169.730469 182.953125 C 169.691406 183.15625 169.511719 183.296875 169.3125 183.296875 C 169.289062 183.296875 169.261719 183.296875 169.234375 183.289062 C 168.234375 183.101562 167.289062 182.859375 166.425781 182.566406 C 166.199219 182.492188 166.082031 182.253906 166.160156 182.03125 C 166.230469 181.808594 166.472656 181.6875 166.695312 181.765625 C 167.523438 182.042969 168.429688 182.277344 169.394531 182.457031 C 169.621094 182.5 169.773438 182.722656 169.730469 182.953125 Z M 162.558594 180.601562 C 155.949219 175.636719 159.84375 166.6875 159.886719 166.597656 C 159.984375 166.386719 160.230469 166.289062 160.445312 166.382812 C 160.660156 166.480469 160.757812 166.730469 160.660156 166.941406 C 160.625 167.027344 157.003906 175.367188 163.070312 179.921875 C 163.257812 180.0625 163.296875 180.328125 163.15625 180.515625 C 163.074219 180.625 162.945312 180.683594 162.816406 180.683594 C 162.726562 180.683594 162.636719 180.65625 162.558594 180.601562 Z M 199.078125 195.972656 C 199.179688 196.183594 199.089844 196.433594 198.875 196.535156 C 198.816406 196.566406 198.753906 196.578125 198.695312 196.578125 C 198.539062 196.578125 198.386719 196.488281 198.3125 196.335938 C 198.097656 195.886719 197.832031 195.441406 197.519531 195.003906 C 197.386719 194.8125 197.429688 194.546875 197.621094 194.414062 C 197.808594 194.277344 198.074219 194.320312 198.210938 194.511719 C 198.550781 194.984375 198.84375 195.476562 199.078125 195.972656 Z M 195.777344 191.9375 C 195.957031 192.085938 195.980469 192.355469 195.832031 192.535156 C 195.746094 192.636719 195.628906 192.6875 195.507812 192.6875 C 195.410156 192.6875 195.3125 192.65625 195.234375 192.585938 C 191.359375 189.351562 185.847656 187.691406 185.792969 187.675781 C 185.570312 187.605469 185.441406 187.371094 185.507812 187.144531 C 185.574219 186.921875 185.808594 186.792969 186.035156 186.859375 C 186.265625 186.929688 191.765625 188.585938 195.777344 191.9375 Z M 182.601562 145.71875 C 182.601562 145.484375 182.789062 145.296875 183.023438 145.296875 L 186.207031 145.296875 C 186.441406 145.296875 186.628906 145.484375 186.628906 145.71875 C 186.628906 145.953125 186.441406 146.144531 186.207031 146.144531 L 183.023438 146.144531 C 182.789062 146.144531 182.601562 145.953125 182.601562 145.71875 Z M 184.289062 152.503906 L 187.535156 152.503906 C 187.609375 152.507812 192.816406 152.722656 194.644531 149.066406 C 194.722656 148.910156 194.882812 148.816406 195.058594 148.832031 C 195.230469 148.847656 195.378906 148.96875 195.429688 149.132812 C 195.472656 149.269531 196.519531 152.507812 201.082031 152.507812 L 204.628906 152.507812 C 204.863281 152.507812 205.050781 152.699219 205.050781 152.933594 C 205.050781 153.167969 204.863281 153.355469 204.628906 153.355469 L 201.082031 153.355469 C 198.371094 153.355469 196.761719 152.285156 195.886719 151.390625 C 195.464844 150.957031 195.171875 150.523438 194.972656 150.171875 C 194.042969 151.519531 192.5625 152.484375 190.644531 152.988281 C 189.382812 153.316406 188.277344 153.359375 187.78125 153.359375 C 187.621094 153.359375 187.527344 153.355469 187.515625 153.355469 L 184.289062 153.355469 C 184.054688 153.355469 183.863281 153.164062 183.863281 152.929688 C 183.863281 152.695312 184.054688 152.503906 184.289062 152.503906 Z M 207.03125 152.933594 C 207.03125 152.699219 207.21875 152.507812 207.453125 152.507812 L 208.878906 152.507812 C 209.113281 152.507812 209.300781 152.699219 209.300781 152.933594 C 209.300781 153.167969 209.113281 153.355469 208.878906 153.355469 L 207.453125 153.355469 C 207.21875 153.355469 207.03125 153.164062 207.03125 152.933594 Z M 213.5625 151.09375 C 213.5625 150.859375 213.75 150.671875 213.984375 150.671875 L 216.226562 150.671875 C 216.460938 150.671875 216.648438 150.859375 216.648438 151.09375 C 216.648438 151.328125 216.460938 151.519531 216.226562 151.519531 L 213.984375 151.519531 C 213.75 151.519531 213.5625 151.328125 213.5625 151.09375 Z M 218.222656 151.09375 C 218.222656 150.859375 218.410156 150.671875 218.644531 150.671875 L 220.792969 150.671875 C 220.804688 150.671875 220.8125 150.671875 220.824219 150.671875 C 220.933594 150.679688 223.539062 150.824219 224.886719 148.476562 C 224.964844 148.34375 225.109375 148.25 225.265625 148.265625 C 225.425781 148.273438 225.566406 148.363281 225.632812 148.507812 C 225.910156 149.082031 226.84375 150.59375 227.816406 150.679688 C 229.199219 150.804688 231.859375 150.679688 231.886719 150.679688 C 232.121094 150.671875 232.320312 150.851562 232.328125 151.085938 C 232.339844 151.320312 232.160156 151.519531 231.925781 151.527344 C 231.851562 151.53125 230.6875 151.589844 229.492188 151.589844 C 228.867188 151.589844 228.234375 151.574219 227.738281 151.527344 C 226.589844 151.425781 225.691406 150.265625 225.21875 149.507812 C 223.589844 151.628906 221.039062 151.535156 220.78125 151.519531 L 218.644531 151.519531 C 218.410156 151.519531 218.222656 151.328125 218.222656 151.09375 Z M 178.246094 162.117188 C 178.246094 161.882812 178.4375 161.695312 178.671875 161.695312 L 183.789062 161.695312 C 184.023438 161.695312 184.210938 161.882812 184.210938 162.117188 C 184.210938 162.351562 184.023438 162.542969 183.789062 162.542969 L 178.671875 162.542969 C 178.4375 162.542969 178.246094 162.351562 178.246094 162.117188 Z M 202.15625 160.554688 L 209.429688 160.554688 C 209.667969 160.554688 209.855469 160.746094 209.855469 160.980469 C 209.855469 161.214844 209.667969 161.402344 209.429688 161.402344 L 202.15625 161.402344 C 201.921875 161.402344 201.734375 161.214844 201.734375 160.980469 C 201.734375 160.746094 201.921875 160.554688 202.15625 160.554688 Z M 211.410156 160.980469 C 211.410156 160.746094 211.597656 160.554688 211.832031 160.554688 L 213.984375 160.554688 C 214.21875 160.554688 214.410156 160.746094 214.410156 160.980469 C 214.410156 161.214844 214.21875 161.402344 213.984375 161.402344 L 211.832031 161.402344 C 211.597656 161.402344 211.410156 161.214844 211.410156 160.980469 Z M 223.976562 160.554688 C 224.210938 160.554688 224.398438 160.746094 224.398438 160.980469 C 224.398438 161.214844 224.210938 161.402344 223.976562 161.402344 L 222.316406 161.402344 C 222.082031 161.402344 221.894531 161.214844 221.894531 160.980469 C 221.894531 160.746094 222.082031 160.554688 222.316406 160.554688 Z M 229.632812 167.617188 C 229.632812 167.851562 229.441406 168.042969 229.207031 168.042969 L 226.550781 168.042969 C 226.316406 168.042969 226.128906 167.851562 226.128906 167.617188 C 226.128906 167.382812 226.316406 167.195312 226.550781 167.195312 L 229.207031 167.195312 C 229.441406 167.195312 229.632812 167.382812 229.632812 167.617188 Z M 203.144531 168.042969 C 202.910156 168.042969 202.71875 167.851562 202.71875 167.617188 C 202.71875 167.382812 202.910156 167.195312 203.144531 167.195312 L 204.628906 167.195312 C 204.863281 167.195312 205.050781 167.382812 205.050781 167.617188 C 205.050781 167.851562 204.863281 168.042969 204.628906 168.042969 Z M 199.378906 168.042969 L 184.613281 168.042969 C 184.378906 168.042969 184.191406 167.851562 184.191406 167.617188 C 184.191406 167.382812 184.378906 167.195312 184.613281 167.195312 L 199.378906 167.195312 C 199.613281 167.195312 199.804688 167.382812 199.804688 167.617188 C 199.804688 167.851562 199.613281 168.042969 199.378906 168.042969 Z M 211.417969 170.851562 C 211.457031 170.65625 211.628906 170.511719 211.832031 170.511719 C 212.039062 170.5 212.207031 170.652344 212.25 170.851562 C 212.253906 170.863281 212.484375 171.941406 213.203125 172.996094 C 214.136719 174.363281 215.425781 175.058594 217.035156 175.058594 C 220.855469 175.058594 221.261719 171.070312 221.273438 170.902344 C 221.292969 170.691406 221.464844 170.527344 221.671875 170.515625 C 221.886719 170.503906 222.070312 170.648438 222.113281 170.851562 C 222.121094 170.894531 223.035156 175.0625 226.210938 175.0625 L 228.84375 175.0625 C 229.078125 175.0625 229.265625 175.253906 229.265625 175.488281 C 229.265625 175.722656 229.078125 175.910156 228.84375 175.910156 L 226.210938 175.910156 C 224.59375 175.910156 223.222656 175.054688 222.253906 173.433594 C 222.050781 173.101562 221.890625 172.769531 221.757812 172.464844 C 221.230469 173.914062 219.976562 175.910156 217.035156 175.910156 C 214.019531 175.910156 212.539062 173.792969 211.882812 172.34375 C 210.472656 176.089844 206.960938 175.925781 206.59375 175.894531 L 203.890625 175.894531 C 203.65625 175.894531 203.46875 175.707031 203.46875 175.472656 C 203.46875 175.238281 203.65625 175.046875 203.890625 175.046875 L 206.605469 175.046875 C 206.625 175.046875 206.636719 175.046875 206.65625 175.050781 C 206.808594 175.0625 210.519531 175.40625 211.417969 170.851562 Z M 200.699219 175.480469 C 200.699219 175.714844 200.507812 175.90625 200.273438 175.90625 L 197.601562 175.90625 C 197.367188 175.90625 197.179688 175.714844 197.179688 175.480469 C 197.179688 175.246094 197.367188 175.058594 197.601562 175.058594 L 200.273438 175.058594 C 200.507812 175.058594 200.699219 175.25 200.699219 175.480469 Z M 210.84375 183.863281 C 210.609375 183.863281 210.421875 183.675781 210.421875 183.441406 C 210.421875 183.203125 210.609375 183.015625 210.84375 183.015625 L 219.003906 183.015625 C 219.238281 183.015625 219.425781 183.203125 219.425781 183.441406 C 219.425781 183.675781 219.238281 183.863281 219.003906 183.863281 Z M 227.9375 183.441406 C 227.9375 183.675781 227.75 183.863281 227.515625 183.863281 L 223.976562 183.863281 C 223.742188 183.863281 223.550781 183.675781 223.550781 183.441406 C 223.550781 183.203125 223.742188 183.015625 223.976562 183.015625 L 227.515625 183.015625 C 227.75 183.015625 227.9375 183.203125 227.9375 183.441406 Z M 225.699219 191.710938 C 225.699219 191.945312 225.507812 192.136719 225.273438 192.136719 L 209.773438 192.136719 C 209.539062 192.136719 209.351562 191.945312 209.351562 191.710938 C 209.351562 191.476562 209.539062 191.289062 209.773438 191.289062 L 225.273438 191.289062 C 225.507812 191.289062 225.699219 191.476562 225.699219 191.710938 Z M 232.328125 191.710938 C 232.328125 191.945312 232.140625 192.136719 231.90625 192.136719 L 229.207031 192.136719 C 228.972656 192.136719 228.785156 191.945312 228.785156 191.710938 C 228.785156 191.476562 228.972656 191.289062 229.207031 191.289062 L 231.90625 191.289062 C 232.140625 191.289062 232.328125 191.476562 232.328125 191.710938 Z M 204.308594 183.441406 C 204.308594 183.675781 204.121094 183.863281 203.886719 183.863281 L 201.4375 183.863281 C 201.203125 183.863281 201.015625 183.675781 201.015625 183.441406 C 201.015625 183.203125 201.203125 183.015625 201.4375 183.015625 L 203.886719 183.015625 C 204.121094 183.015625 204.308594 183.203125 204.308594 183.441406 Z M 172.71875 167.195312 L 175.871094 167.195312 C 176.105469 167.195312 176.296875 167.382812 176.296875 167.617188 C 176.296875 167.851562 176.105469 168.042969 175.871094 168.042969 L 172.71875 168.042969 C 172.484375 168.042969 172.292969 167.851562 172.292969 167.617188 C 172.292969 167.382812 172.484375 167.195312 172.71875 167.195312 Z M 203.460938 145.71875 C 203.460938 145.484375 203.652344 145.296875 203.886719 145.296875 L 206.605469 145.296875 C 206.839844 145.296875 207.03125 145.484375 207.03125 145.71875 C 207.03125 145.953125 206.839844 146.144531 206.605469 146.144531 L 203.886719 146.144531 C 203.652344 146.144531 203.460938 145.953125 203.460938 145.71875 Z M 147.984375 148.691406 C 147.984375 148.457031 148.171875 148.265625 148.40625 148.265625 C 148.640625 148.265625 148.832031 148.457031 148.832031 148.691406 C 148.832031 148.925781 148.640625 149.113281 148.40625 149.113281 C 148.171875 149.113281 147.984375 148.925781 147.984375 148.691406 Z M 146.007812 157.164062 C 146.007812 157.398438 145.816406 157.589844 145.582031 157.589844 C 145.347656 157.589844 145.160156 157.398438 145.160156 157.164062 C 145.160156 156.929688 145.347656 156.742188 145.582031 156.742188 C 145.816406 156.742188 146.007812 156.929688 146.007812 157.164062 Z M 161.261719 158.011719 C 161.261719 157.777344 161.453125 157.589844 161.6875 157.589844 C 161.921875 157.589844 162.109375 157.777344 162.109375 158.011719 C 162.109375 158.246094 161.921875 158.4375 161.6875 158.4375 C 161.453125 158.4375 161.261719 158.246094 161.261719 158.011719 Z M 143.605469 167.761719 C 143.371094 167.761719 143.179688 167.570312 143.179688 167.335938 C 143.179688 167.101562 143.371094 166.914062 143.605469 166.914062 C 143.839844 166.914062 144.027344 167.101562 144.027344 167.335938 C 144.027344 167.570312 143.839844 167.761719 143.605469 167.761719 Z M 144.3125 177.222656 C 144.3125 177.457031 144.121094 177.648438 143.886719 177.648438 C 143.652344 177.648438 143.464844 177.457031 143.464844 177.222656 C 143.464844 176.988281 143.652344 176.800781 143.886719 176.800781 C 144.121094 176.800781 144.3125 176.988281 144.3125 177.222656 Z M 157.589844 181.460938 C 157.589844 181.695312 157.398438 181.886719 157.164062 181.886719 C 156.929688 181.886719 156.742188 181.695312 156.742188 181.460938 C 156.742188 181.226562 156.929688 181.039062 157.164062 181.039062 C 157.398438 181.039062 157.589844 181.226562 157.589844 181.460938 Z M 163.238281 188.808594 C 163.238281 189.042969 163.050781 189.230469 162.816406 189.230469 C 162.582031 189.230469 162.390625 189.042969 162.390625 188.808594 C 162.390625 188.574219 162.582031 188.382812 162.816406 188.382812 C 163.050781 188.382812 163.238281 188.574219 163.238281 188.808594 Z M 159.566406 195.585938 C 159.566406 195.824219 159.378906 196.011719 159.144531 196.011719 C 158.910156 196.011719 158.71875 195.824219 158.71875 195.585938 C 158.71875 195.351562 158.910156 195.164062 159.144531 195.164062 C 159.378906 195.164062 159.566406 195.351562 159.566406 195.585938 Z M 174.539062 194.457031 C 174.539062 194.691406 174.351562 194.882812 174.117188 194.882812 C 173.882812 194.882812 173.691406 194.691406 173.691406 194.457031 C 173.691406 194.222656 173.882812 194.035156 174.117188 194.035156 C 174.351562 194.035156 174.539062 194.222656 174.539062 194.457031 Z M 179.625 191.914062 C 179.625 192.148438 179.4375 192.339844 179.203125 192.339844 C 178.96875 192.339844 178.777344 192.148438 178.777344 191.914062 C 178.777344 191.679688 178.96875 191.492188 179.203125 191.492188 C 179.4375 191.492188 179.625 191.679688 179.625 191.914062 Z M 184.992188 196.71875 C 184.992188 196.953125 184.804688 197.140625 184.570312 197.140625 C 184.335938 197.140625 184.144531 196.953125 184.144531 196.71875 C 184.144531 196.484375 184.335938 196.292969 184.570312 196.292969 C 184.804688 196.292969 184.992188 196.484375 184.992188 196.71875 Z M 143.179688 146.148438 C 143.179688 145.914062 143.371094 145.722656 143.605469 145.722656 C 143.839844 145.722656 144.027344 145.914062 144.027344 146.148438 C 144.027344 146.382812 143.839844 146.570312 143.605469 146.570312 C 143.371094 146.570312 143.179688 146.382812 143.179688 146.148438 Z M 143.179688 146.148438 "/></g><g style="fill:#ffffff;fill-opacity:1;"><g transform="translate(82.438148, 252.016585)"><path style="stroke:none" d="M 16.226562 -9.402344 C 16.226562 -11.902344 15.679688 -13.519531 14.25 -15.082031 C 12.921875 -16.515625 10.886719 -17.324219 8.960938 -17.324219 C 5.808594 -17.324219 2.96875 -15.316406 2.082031 -12.398438 C 1.769531 -11.410156 1.691406 -10.601562 1.691406 -9.480469 L 1.691406 -7.660156 C 1.691406 -5.15625 2.238281 -3.542969 3.671875 -1.980469 C 5 -0.546875 7.03125 0.261719 8.960938 0.261719 C 12.113281 0.261719 14.953125 -1.746094 15.835938 -4.664062 C 16.148438 -5.652344 16.226562 -6.460938 16.226562 -7.582031 Z M 13.128906 -6.328125 C 13.128906 -3.828125 12.710938 -2.554688 11.902344 -1.640625 C 11.148438 -0.78125 10.183594 -0.285156 8.960938 -0.285156 C 7.632812 -0.285156 6.539062 -0.886719 5.859375 -1.824219 C 5.054688 -2.917969 4.792969 -4.089844 4.792969 -6.539062 L 4.792969 -10.730469 C 4.792969 -13.234375 5.210938 -14.507812 6.015625 -15.421875 C 6.773438 -16.28125 7.738281 -16.773438 8.960938 -16.773438 C 10.289062 -16.773438 11.382812 -16.175781 12.058594 -15.238281 C 12.867188 -14.144531 13.128906 -12.972656 13.128906 -10.523438 Z M 13.128906 -6.328125 "/></g></g><g style="fill:#ffffff;fill-opacity:1;"><g transform="translate(102.546627, 252.016585)"><path style="stroke:none" d="M 12.867188 -17.085938 L 12.867188 -16.539062 L 14.664062 -16.539062 L 14.664062 -5.625 C 14.664062 -2.292969 12.921875 -0.3125 10.496094 -0.3125 C 8.074219 -0.3125 6.328125 -2.292969 6.328125 -5.625 L 6.328125 -16.539062 L 8.074219 -16.539062 L 8.074219 -17.085938 L 1.433594 -17.085938 L 1.433594 -16.539062 L 3.230469 -16.539062 L 3.230469 -7.660156 C 3.230469 -6.382812 3.4375 -5.132812 3.804688 -4.195312 C 4.871094 -1.5625 7.527344 0.234375 10.496094 0.234375 C 13.46875 0.234375 16.125 -1.5625 17.191406 -4.195312 C 17.558594 -5.132812 17.765625 -6.382812 17.765625 -7.660156 L 17.765625 -16.539062 L 19.511719 -16.539062 L 19.511719 -17.085938 Z M 12.867188 -17.085938 "/></g></g><g style="fill:#ffffff;fill-opacity:1;"><g transform="translate(125.676519, 252.016585)"><path style="stroke:none" d="M 9.117188 -2.1875 C 9.039062 -1.277344 8.441406 -0.703125 7.660156 -0.703125 C 6.953125 -0.703125 6.199219 -1.199219 6.199219 -2.449219 L 6.199219 -16.539062 L 9.144531 -16.539062 L 9.144531 -17.085938 L 6.199219 -17.085938 L 6.199219 -23.964844 L 3.101562 -23.964844 L 3.101562 -17.085938 L 1.300781 -17.085938 L 1.300781 -16.539062 L 3.101562 -16.539062 L 3.101562 -4.273438 C 3.101562 -3.152344 3.203125 -2.214844 3.542969 -1.511719 C 4.140625 -0.285156 5.210938 0.261719 6.851562 0.261719 C 8.492188 0.261719 9.613281 -0.808594 9.691406 -2.1875 Z M 9.117188 -2.1875 "/></g></g><g style="fill:#ffffff;fill-opacity:1;"><g transform="translate(138.335636, 252.016585)"><path style="stroke:none" d=""/></g></g><g style="fill:#ffffff;fill-opacity:1;"><g transform="translate(153.443154, 252.016585)"><path style="stroke:none" d="M 16.226562 -9.402344 C 16.226562 -11.902344 15.679688 -13.519531 14.25 -15.082031 C 12.921875 -16.515625 10.886719 -17.324219 8.960938 -17.324219 C 5.808594 -17.324219 2.96875 -15.316406 2.082031 -12.398438 C 1.769531 -11.410156 1.691406 -10.601562 1.691406 -9.480469 L 1.691406 -7.660156 C 1.691406 -5.15625 2.238281 -3.542969 3.671875 -1.980469 C 5 -0.546875 7.03125 0.261719 8.960938 0.261719 C 12.113281 0.261719 14.953125 -1.746094 15.835938 -4.664062 C 16.148438 -5.652344 16.226562 -6.460938 16.226562 -7.582031 Z M 13.128906 -6.328125 C 13.128906 -3.828125 12.710938 -2.554688 11.902344 -1.640625 C 11.148438 -0.78125 10.183594 -0.285156 8.960938 -0.285156 C 7.632812 -0.285156 6.539062 -0.886719 5.859375 -1.824219 C 5.054688 -2.917969 4.792969 -4.089844 4.792969 -6.539062 L 4.792969 -10.730469 C 4.792969 -13.234375 5.210938 -14.507812 6.015625 -15.421875 C 6.773438 -16.28125 7.738281 -16.773438 8.960938 -16.773438 C 10.289062 -16.773438 11.382812 -16.175781 12.058594 -15.238281 C 12.867188 -14.144531 13.128906 -12.972656 13.128906 -10.523438 Z M 13.128906 -6.328125 "/></g></g><g style="fill:#ffffff;fill-opacity:1;"><g transform="translate(173.551633, 252.016585)"><path style="stroke:none" d="M 3.308594 -17.085938 L 1.511719 -17.085938 L 1.511719 -16.539062 L 3.308594 -16.539062 L 3.308594 -0.546875 L 1.511719 -0.546875 L 1.511719 0 L 8.386719 0 L 8.386719 -0.546875 L 6.40625 -0.546875 L 6.40625 -16.539062 L 9.351562 -16.539062 L 9.351562 -17.085938 L 6.40625 -17.085938 L 6.40625 -20.082031 C 6.40625 -21.75 6.589844 -22.429688 7.085938 -23 C 7.476562 -23.445312 7.945312 -23.652344 8.621094 -23.652344 C 8.910156 -23.652344 9.167969 -23.601562 9.378906 -23.496094 C 8.464844 -23.289062 7.917969 -22.609375 7.917969 -21.722656 C 7.917969 -20.707031 8.675781 -19.953125 9.742188 -19.953125 C 10.757812 -19.953125 11.511719 -20.707031 11.511719 -21.75 C 11.511719 -23.15625 10.132812 -24.199219 8.386719 -24.199219 C 4.820312 -24.199219 3.308594 -21.566406 3.308594 -18.15625 Z M 3.308594 -17.085938 "/></g></g><g style="fill:#ffffff;fill-opacity:1;"><g transform="translate(185.950285, 252.016585)"><path style="stroke:none" d=""/></g></g><g style="fill:#ffffff;fill-opacity:1;"><g transform="translate(201.057802, 252.016585)"><path style="stroke:none" d="M 16.226562 -9.402344 C 16.226562 -11.902344 15.679688 -13.519531 14.25 -15.082031 C 12.921875 -16.515625 10.886719 -17.324219 8.960938 -17.324219 C 5.808594 -17.324219 2.96875 -15.316406 2.082031 -12.398438 C 1.769531 -11.410156 1.691406 -10.601562 1.691406 -9.480469 L 1.691406 -7.660156 C 1.691406 -5.15625 2.238281 -3.542969 3.671875 -1.980469 C 5 -0.546875 7.03125 0.261719 8.960938 0.261719 C 12.113281 0.261719 14.953125 -1.746094 15.835938 -4.664062 C 16.148438 -5.652344 16.226562 -6.460938 16.226562 -7.582031 Z M 13.128906 -6.328125 C 13.128906 -3.828125 12.710938 -2.554688 11.902344 -1.640625 C 11.148438 -0.78125 10.183594 -0.285156 8.960938 -0.285156 C 7.632812 -0.285156 6.539062 -0.886719 5.859375 -1.824219 C 5.054688 -2.917969 4.792969 -4.089844 4.792969 -6.539062 L 4.792969 -10.730469 C 4.792969 -13.234375 5.210938 -14.507812 6.015625 -15.421875 C 6.773438 -16.28125 7.738281 -16.773438 8.960938 -16.773438 C 10.289062 -16.773438 11.382812 -16.175781 12.058594 -15.238281 C 12.867188 -14.144531 13.128906 -12.972656 13.128906 -10.523438 Z M 13.128906 -6.328125 "/></g></g><g style="fill:#ffffff;fill-opacity:1;"><g transform="translate(221.166281, 252.016585)"><path style="stroke:none" d="M 3.308594 -17.085938 L 1.511719 -17.085938 L 1.511719 -16.539062 L 3.308594 -16.539062 L 3.308594 -0.546875 L 1.511719 -0.546875 L 1.511719 0 L 8.386719 0 L 8.386719 -0.546875 L 6.40625 -0.546875 L 6.40625 -16.539062 L 9.351562 -16.539062 L 9.351562 -17.085938 L 6.40625 -17.085938 L 6.40625 -20.082031 C 6.40625 -21.75 6.589844 -22.429688 7.085938 -23 C 7.476562 -23.445312 7.945312 -23.652344 8.621094 -23.652344 C 8.910156 -23.652344 9.167969 -23.601562 9.378906 -23.496094 C 8.464844 -23.289062 7.917969 -22.609375 7.917969 -21.722656 C 7.917969 -20.707031 8.675781 -19.953125 9.742188 -19.953125 C 10.757812 -19.953125 11.511719 -20.707031 11.511719 -21.75 C 11.511719 -23.15625 10.132812 -24.199219 8.386719 -24.199219 C 4.820312 -24.199219 3.308594 -21.566406 3.308594 -18.15625 Z M 3.308594 -17.085938 "/></g></g><g style="fill:#ffffff;fill-opacity:1;"><g transform="translate(233.564933, 252.016585)"><path style="stroke:none" d="M 3.308594 -17.085938 L 1.511719 -17.085938 L 1.511719 -16.539062 L 3.308594 -16.539062 L 3.308594 -0.546875 L 1.511719 -0.546875 L 1.511719 0 L 8.386719 0 L 8.386719 -0.546875 L 6.40625 -0.546875 L 6.40625 -16.539062 L 9.351562 -16.539062 L 9.351562 -17.085938 L 6.40625 -17.085938 L 6.40625 -20.082031 C 6.40625 -21.75 6.589844 -22.429688 7.085938 -23 C 7.476562 -23.445312 7.945312 -23.652344 8.621094 -23.652344 C 8.910156 -23.652344 9.167969 -23.601562 9.378906 -23.496094 C 8.464844 -23.289062 7.917969 -22.609375 7.917969 -21.722656 C 7.917969 -20.707031 8.675781 -19.953125 9.742188 -19.953125 C 10.757812 -19.953125 11.511719 -20.707031 11.511719 -21.75 C 11.511719 -23.15625 10.132812 -24.199219 8.386719 -24.199219 C 4.820312 -24.199219 3.308594 -21.566406 3.308594 -18.15625 Z M 3.308594 -17.085938 "/></g></g><g style="fill:#ffffff;fill-opacity:1;"><g transform="translate(245.963584, 252.016585)"><path style="stroke:none" d="M 6.589844 -21.386719 C 6.589844 -22.296875 5.835938 -23.054688 4.921875 -23.054688 C 4.011719 -23.054688 3.257812 -22.296875 3.257812 -21.386719 C 3.257812 -20.472656 4.011719 -19.71875 4.921875 -19.71875 C 5.835938 -19.71875 6.589844 -20.472656 6.589844 -21.386719 Z M 8.335938 0 L 8.335938 -0.546875 L 6.589844 -0.546875 L 6.589844 -17.085938 L 1.691406 -17.085938 L 1.691406 -16.539062 L 3.492188 -16.539062 L 3.492188 -0.546875 L 1.691406 -0.546875 L 1.691406 0 Z M 8.335938 0 "/></g></g><g style="fill:#ffffff;fill-opacity:1;"><g transform="translate(258.049673, 252.016585)"><path style="stroke:none" d="M 13.101562 -3.671875 C 12.789062 -1.847656 11.332031 -0.285156 9.195312 -0.285156 C 7.425781 -0.285156 6.171875 -1.222656 5.546875 -2.527344 C 5.027344 -3.621094 4.921875 -4.664062 4.921875 -7.1875 L 4.921875 -10.941406 C 4.921875 -12.894531 5.234375 -14.25 5.886719 -15.109375 C 6.71875 -16.226562 7.660156 -16.773438 9.195312 -16.773438 C 11.019531 -16.773438 12.84375 -15.316406 12.84375 -13.335938 L 12.84375 -13.101562 L 13.390625 -13.101562 L 13.390625 -17.269531 L 12.84375 -17.269531 L 12.84375 -15.472656 C 12.035156 -16.59375 10.707031 -17.324219 8.882812 -17.324219 C 6.773438 -17.324219 4.871094 -16.332031 3.648438 -14.925781 C 2.449219 -13.570312 1.824219 -11.957031 1.824219 -9.429688 L 1.824219 -7.605469 C 1.824219 -5.183594 2.371094 -3.59375 3.621094 -2.160156 C 5 -0.574219 7.136719 0.285156 9.167969 0.285156 C 11.488281 0.285156 13.3125 -1.277344 13.703125 -3.671875 Z M 13.101562 -3.671875 "/></g></g><g style="fill:#ffffff;fill-opacity:1;"><g transform="translate(274.902307, 252.016585)"><path style="stroke:none" d="M 16.332031 -8.152344 L 16.332031 -9.351562 C 16.332031 -12.476562 15.5 -14.066406 13.910156 -15.523438 C 12.660156 -16.671875 10.757812 -17.324219 9.089844 -17.324219 C 4.792969 -17.324219 1.824219 -14.09375 1.824219 -9.664062 L 1.824219 -7.582031 C 1.824219 -5.132812 2.371094 -3.515625 3.726562 -2.03125 C 5 -0.652344 6.929688 0.261719 9.246094 0.261719 C 12.296875 0.261719 14.640625 -1.355469 16.046875 -4.429688 L 15.550781 -4.664062 C 14.066406 -1.640625 12.058594 -0.285156 9.324219 -0.285156 C 7.292969 -0.285156 6.015625 -1.25 5.417969 -2.761719 C 4.976562 -3.882812 4.921875 -5.3125 4.921875 -7.242188 L 4.921875 -8.152344 Z M 13.257812 -8.699219 L 4.921875 -8.699219 L 4.921875 -10.730469 C 4.921875 -13.234375 5.339844 -14.507812 6.148438 -15.421875 C 6.902344 -16.28125 7.867188 -16.773438 9.089844 -16.773438 C 10.417969 -16.773438 11.511719 -16.175781 12.191406 -15.238281 C 13 -14.144531 13.257812 -12.972656 13.257812 -10.523438 Z M 13.257812 -8.699219 "/></g></g><g style="fill:#ffffff;fill-opacity:1;"><g transform="translate(137.388467, 278.189404)"><path style="stroke:none" d="M 8.3125 -2.332031 C 8.113281 -1.171875 7.1875 -0.183594 5.832031 -0.183594 C 4.710938 -0.183594 3.917969 -0.777344 3.519531 -1.601562 C 3.191406 -2.296875 3.125 -2.957031 3.125 -4.5625 L 3.125 -6.941406 C 3.125 -8.179688 3.320312 -9.039062 3.734375 -9.585938 C 4.265625 -10.296875 4.859375 -10.644531 5.832031 -10.644531 C 6.992188 -10.644531 8.148438 -9.71875 8.148438 -8.460938 L 8.148438 -8.3125 L 8.496094 -8.3125 L 8.496094 -10.957031 L 8.148438 -10.957031 L 8.148438 -9.816406 C 7.636719 -10.527344 6.792969 -10.988281 5.636719 -10.988281 C 4.296875 -10.988281 3.089844 -10.363281 2.3125 -9.46875 C 1.554688 -8.609375 1.15625 -7.585938 1.15625 -5.980469 L 1.15625 -4.824219 C 1.15625 -3.289062 1.503906 -2.28125 2.296875 -1.371094 C 3.171875 -0.363281 4.527344 0.183594 5.816406 0.183594 C 7.289062 0.183594 8.445312 -0.808594 8.691406 -2.332031 Z M 8.3125 -2.332031 "/></g></g><g style="fill:#ffffff;fill-opacity:1;"><g transform="translate(148.076665, 278.189404)"><path style="stroke:none" d="M 10.296875 -5.964844 C 10.296875 -7.550781 9.949219 -8.578125 9.039062 -9.570312 C 8.195312 -10.476562 6.90625 -10.988281 5.683594 -10.988281 C 3.683594 -10.988281 1.882812 -9.71875 1.320312 -7.867188 C 1.125 -7.238281 1.074219 -6.726562 1.074219 -6.015625 L 1.074219 -4.859375 C 1.074219 -3.273438 1.421875 -2.246094 2.332031 -1.257812 C 3.171875 -0.347656 4.460938 0.164062 5.683594 0.164062 C 7.683594 0.164062 9.484375 -1.105469 10.046875 -2.957031 C 10.246094 -3.585938 10.296875 -4.097656 10.296875 -4.808594 Z M 8.328125 -4.015625 C 8.328125 -2.429688 8.066406 -1.621094 7.550781 -1.042969 C 7.074219 -0.496094 6.460938 -0.183594 5.683594 -0.183594 C 4.84375 -0.183594 4.148438 -0.5625 3.71875 -1.15625 C 3.207031 -1.851562 3.039062 -2.59375 3.039062 -4.148438 L 3.039062 -6.808594 C 3.039062 -8.394531 3.304688 -9.203125 3.816406 -9.785156 C 4.296875 -10.328125 4.90625 -10.644531 5.683594 -10.644531 C 6.527344 -10.644531 7.222656 -10.261719 7.652344 -9.667969 C 8.164062 -8.972656 8.328125 -8.230469 8.328125 -6.675781 Z M 8.328125 -4.015625 "/></g></g><g style="fill:#ffffff;fill-opacity:1;"><g transform="translate(160.829634, 278.189404)"><path style="stroke:none" d="M 5.289062 0 L 5.289062 -0.347656 L 4.179688 -0.347656 L 4.179688 -15.203125 L 1.074219 -15.203125 L 1.074219 -14.855469 L 2.214844 -14.855469 L 2.214844 -0.347656 L 1.074219 -0.347656 L 1.074219 0 Z M 5.289062 0 "/></g></g><g style="fill:#ffffff;fill-opacity:1;"><g transform="translate(167.586507, 278.189404)"><path style="stroke:none" d="M 5.289062 0 L 5.289062 -0.347656 L 4.179688 -0.347656 L 4.179688 -15.203125 L 1.074219 -15.203125 L 1.074219 -14.855469 L 2.214844 -14.855469 L 2.214844 -0.347656 L 1.074219 -0.347656 L 1.074219 0 Z M 5.289062 0 "/></g></g><g style="fill:#ffffff;fill-opacity:1;"><g transform="translate(174.343381, 278.189404)"><path style="stroke:none" d="M 10.363281 -5.171875 L 10.363281 -5.933594 C 10.363281 -7.914062 9.832031 -8.925781 8.824219 -9.847656 C 8.03125 -10.578125 6.824219 -10.988281 5.765625 -10.988281 C 3.039062 -10.988281 1.15625 -8.941406 1.15625 -6.132812 L 1.15625 -4.808594 C 1.15625 -3.253906 1.503906 -2.230469 2.363281 -1.289062 C 3.171875 -0.414062 4.394531 0.164062 5.867188 0.164062 C 7.800781 0.164062 9.289062 -0.859375 10.179688 -2.808594 L 9.867188 -2.957031 C 8.925781 -1.042969 7.652344 -0.183594 5.917969 -0.183594 C 4.628906 -0.183594 3.816406 -0.792969 3.4375 -1.75 C 3.15625 -2.460938 3.125 -3.371094 3.125 -4.59375 L 3.125 -5.171875 Z M 8.410156 -5.519531 L 3.125 -5.519531 L 3.125 -6.808594 C 3.125 -8.394531 3.386719 -9.203125 3.898438 -9.785156 C 4.378906 -10.328125 4.992188 -10.644531 5.765625 -10.644531 C 6.609375 -10.644531 7.304688 -10.261719 7.734375 -9.667969 C 8.246094 -8.972656 8.410156 -8.230469 8.410156 -6.675781 Z M 8.410156 -5.519531 "/></g></g><g style="fill:#ffffff;fill-opacity:1;"><g transform="translate(186.914656, 278.189404)"><path style="stroke:none" d="M 8.3125 -2.332031 C 8.113281 -1.171875 7.1875 -0.183594 5.832031 -0.183594 C 4.710938 -0.183594 3.917969 -0.777344 3.519531 -1.601562 C 3.191406 -2.296875 3.125 -2.957031 3.125 -4.5625 L 3.125 -6.941406 C 3.125 -8.179688 3.320312 -9.039062 3.734375 -9.585938 C 4.265625 -10.296875 4.859375 -10.644531 5.832031 -10.644531 C 6.992188 -10.644531 8.148438 -9.71875 8.148438 -8.460938 L 8.148438 -8.3125 L 8.496094 -8.3125 L 8.496094 -10.957031 L 8.148438 -10.957031 L 8.148438 -9.816406 C 7.636719 -10.527344 6.792969 -10.988281 5.636719 -10.988281 C 4.296875 -10.988281 3.089844 -10.363281 2.3125 -9.46875 C 1.554688 -8.609375 1.15625 -7.585938 1.15625 -5.980469 L 1.15625 -4.824219 C 1.15625 -3.289062 1.503906 -2.28125 2.296875 -1.371094 C 3.171875 -0.363281 4.527344 0.183594 5.816406 0.183594 C 7.289062 0.183594 8.445312 -0.808594 8.691406 -2.332031 Z M 8.3125 -2.332031 "/></g></g><g style="fill:#ffffff;fill-opacity:1;"><g transform="translate(197.602854, 278.189404)"><path style="stroke:none" d="M 5.785156 -1.386719 C 5.734375 -0.808594 5.355469 -0.445312 4.859375 -0.445312 C 4.414062 -0.445312 3.933594 -0.761719 3.933594 -1.554688 L 3.933594 -10.492188 L 5.800781 -10.492188 L 5.800781 -10.839844 L 3.933594 -10.839844 L 3.933594 -15.203125 L 1.964844 -15.203125 L 1.964844 -10.839844 L 0.828125 -10.839844 L 0.828125 -10.492188 L 1.964844 -10.492188 L 1.964844 -2.710938 C 1.964844 -2 2.03125 -1.40625 2.246094 -0.957031 C 2.628906 -0.183594 3.304688 0.164062 4.347656 0.164062 C 5.386719 0.164062 6.097656 -0.511719 6.148438 -1.386719 Z M 5.785156 -1.386719 "/></g></g><g style="fill:#ffffff;fill-opacity:1;"><g transform="translate(205.631631, 278.189404)"><path style="stroke:none" d="M 4.179688 -13.566406 C 4.179688 -14.144531 3.703125 -14.625 3.125 -14.625 C 2.546875 -14.625 2.066406 -14.144531 2.066406 -13.566406 C 2.066406 -12.988281 2.546875 -12.511719 3.125 -12.511719 C 3.703125 -12.511719 4.179688 -12.988281 4.179688 -13.566406 Z M 5.289062 0 L 5.289062 -0.347656 L 4.179688 -0.347656 L 4.179688 -10.839844 L 1.074219 -10.839844 L 1.074219 -10.492188 L 2.214844 -10.492188 L 2.214844 -0.347656 L 1.074219 -0.347656 L 1.074219 0 Z M 5.289062 0 "/></g></g><g style="fill:#ffffff;fill-opacity:1;"><g transform="translate(213.297005, 278.189404)"><path style="stroke:none" d="M 12.210938 -10.492188 L 12.210938 -10.839844 L 9.453125 -10.839844 L 9.453125 -10.492188 L 10.578125 -10.492188 L 6.808594 -2.644531 L 3.273438 -10.492188 L 4.378906 -10.492188 L 4.378906 -10.839844 L 0 -10.839844 L 0 -10.492188 L 1.089844 -10.492188 L 5.917969 0.117188 L 11.023438 -10.492188 Z M 12.210938 -10.492188 "/></g></g><g style="fill:#ffffff;fill-opacity:1;"><g transform="translate(226.396853, 278.189404)"><path style="stroke:none" d="M 10.363281 -5.171875 L 10.363281 -5.933594 C 10.363281 -7.914062 9.832031 -8.925781 8.824219 -9.847656 C 8.03125 -10.578125 6.824219 -10.988281 5.765625 -10.988281 C 3.039062 -10.988281 1.15625 -8.941406 1.15625 -6.132812 L 1.15625 -4.808594 C 1.15625 -3.253906 1.503906 -2.230469 2.363281 -1.289062 C 3.171875 -0.414062 4.394531 0.164062 5.867188 0.164062 C 7.800781 0.164062 9.289062 -0.859375 10.179688 -2.808594 L 9.867188 -2.957031 C 8.925781 -1.042969 7.652344 -0.183594 5.917969 -0.183594 C 4.628906 -0.183594 3.816406 -0.792969 3.4375 -1.75 C 3.15625 -2.460938 3.125 -3.371094 3.125 -4.59375 L 3.125 -5.171875 Z M 8.410156 -5.519531 L 3.125 -5.519531 L 3.125 -6.808594 C 3.125 -8.394531 3.386719 -9.203125 3.898438 -9.785156 C 4.378906 -10.328125 4.992188 -10.644531 5.765625 -10.644531 C 6.609375 -10.644531 7.304688 -10.261719 7.734375 -9.667969 C 8.246094 -8.972656 8.410156 -8.230469 8.410156 -6.675781 Z M 8.410156 -5.519531 "/></g></g><path style="fill:none;stroke-width:1;stroke-linecap:round;stroke-linejoin:miter;stroke:#ffffff;stroke-opacity:1;stroke-miterlimit:4;" d="M 0.499506 0.499087 L 54.140134 0.499087 " transform="matrix(0.75,0,0,0.75,82.844121,272.67256)"/><path style="fill:none;stroke-width:1;stroke-linecap:round;stroke-linejoin:miter;stroke:#ffffff;stroke-opacity:1;stroke-miterlimit:4;" d="M 0.500562 0.500505 L 54.664421 0.500505 " transform="matrix(0.747875,0,0,0.747875,251.176423,272.67256)"/></g></svg>